HIERARCHY
ROOT root
{
	OFFSET	0	13.1	24.9
	CHANNELS 6  Xposition Yposition Zposition Xrotation Yrotation Zrotation
	JOINT spine_1
	{
		OFFSET	0	9.99999	0
		CHANNELS 3  Xrotation Yrotation Zrotation
		JOINT spine_2
		{
			OFFSET	0	112	-10
			CHANNELS 3  Xrotation Yrotation Zrotation
			JOINT spine_3
			{
				OFFSET	0	206.5	19.3
				CHANNELS 3  Xrotation Yrotation Zrotation
				JOINT spine_4
				{
					OFFSET	0	110.4	14.6
					CHANNELS 3  Xrotation Yrotation Zrotation
					JOINT neck_1
					{
						OFFSET	0	71.8	-50.3
						CHANNELS 3  Xrotation Yrotation Zrotation
						JOINT neck_2
						{
							OFFSET	0	86.2	-25.8
							CHANNELS 3  Xrotation Yrotation Zrotation
							JOINT head_ee
							{
								OFFSET	0	179.8	-8.7
								CHANNELS 3  Xrotation Yrotation Zrotation
								End Site
								{
									OFFSET	1	0	0
								}
							}
						}
					}
					JOINT left_clavicle
					{
						OFFSET	-43.2	22.4	-70.8
						CHANNELS 3  Xrotation Yrotation Zrotation
						JOINT left_shoulder
						{
							OFFSET	-93.9	-5.79999	48.7
							CHANNELS 3  Xrotation Yrotation Zrotation
							JOINT left_elbow
							{
								OFFSET	-291.4	-30.8	15.2
								CHANNELS 3  Xrotation Yrotation Zrotation
								JOINT left_lowarm_twist
								{
									OFFSET	-110.7	-3.89999	13.6
									CHANNELS 3  Xrotation Yrotation Zrotation
									JOINT left_hand
									{
										OFFSET	-110.7	-3.89999	13.6
										CHANNELS 3  Xrotation Yrotation Zrotation
										JOINT left_ee
										{
											OFFSET	-80.8	-5.10001	12.1
											CHANNELS 3  Xrotation Yrotation Zrotation
											End Site
											{
												OFFSET	1	0	0
											}
										}
									}
								}
							}
						}
					}
					JOINT right_clavicle
					{
						OFFSET	43.2	22.4	-70.8
						CHANNELS 3  Xrotation Yrotation Zrotation
						JOINT right_shoulder
						{
							OFFSET	93.9	-5.79999	48.7
							CHANNELS 3  Xrotation Yrotation Zrotation
							JOINT right_elbow
							{
								OFFSET	291.4	-30.8	15.2
								CHANNELS 3  Xrotation Yrotation Zrotation
								JOINT right_lowarm_twist
								{
									OFFSET	110.7	-3.89999	13.6
									CHANNELS 3  Xrotation Yrotation Zrotation
									JOINT right_hand
									{
										OFFSET	110.7	-3.89999	13.6
										CHANNELS 3  Xrotation Yrotation Zrotation
										JOINT right_ee
										{
											OFFSET	80.8	-5.10001	12.1
											CHANNELS 3  Xrotation Yrotation Zrotation
											End Site
											{
												OFFSET	1	0	0
											}
										}
									}
								}
							}
						}
					}
				}
			}
		}
	}
	JOINT left_hip
	{
		OFFSET	-82.8	-127.5	0.300001
		CHANNELS 3  Xrotation Yrotation Zrotation
		JOINT left_knee
		{
			OFFSET	-28.2	-396.7	2.2
			CHANNELS 3  Xrotation Yrotation Zrotation
			JOINT left_ankle
			{
				OFFSET	-11.7	-411.3	35.4
				CHANNELS 3  Xrotation Yrotation Zrotation
				JOINT left_toes
				{
					OFFSET	0	-60	-88.6
					CHANNELS 3  Xrotation Yrotation Zrotation
					JOINT left_foot_ee
					{
						OFFSET	-22.5	-16.5	-42.2
						CHANNELS 3  Xrotation Yrotation Zrotation
						End Site
						{
							OFFSET	1	0	0
						}
					}
				}
			}
		}
	}
	JOINT right_hip
	{
		OFFSET	82.8	-127.5	0.300001
		CHANNELS 3  Xrotation Yrotation Zrotation
		JOINT right_knee
		{
			OFFSET	28.2	-396.7	2.2
			CHANNELS 3  Xrotation Yrotation Zrotation
			JOINT right_ankle
			{
				OFFSET	11.7	-411.3	35.4
				CHANNELS 3  Xrotation Yrotation Zrotation
				JOINT right_toes
				{
					OFFSET	0	-60	-88.6
					CHANNELS 3  Xrotation Yrotation Zrotation
					JOINT right_foot_ee
					{
						OFFSET	22.5	-16.5	-42.2
						CHANNELS 3  Xrotation Yrotation Zrotation
						End Site
						{
							OFFSET	1	0	0
						}
					}
				}
			}
		}
	}
}
MOTION
Frames: 6
Frame Time: 0.02
2162.6 656.138 -1615.68 11.7268 61.5992 -7.62468 -1.21947 -0.0579731 -1.34269 -1.21846 0.0275751 -1.34365 -1.21839 0.337163 -1.30096 -1.22073 0.127488 -1.33788 -14.1207 16.814 13.2913 -14.0519 24.0977 17.8486 -0.0 0.0 -0.0 6.08939 24.6074 11.0663 9.05183 -25.7624 61.9701 2.00066 -44.738 0.823417 -36.2532 -2.5618 3.77879 1.06084 -0.624437 6.84912 -0.0 0.0 -0.0 12.3676 11.2801 -25.11 -7.21673 -6.79845 -58.7235 0.204495 5.78452 -0.0103315 -41.1543 3.07475 -4.14232 4.14915 -22.0785 -35.6766 0.0 0.0 0.0 21.2147 36.488 -21.5472 -40.5913 -0.504814 6.08085 30.8155 -15.0667 -4.25877 2.44755 -0.0 -0.0 -0.0 0.0 -0.0 20.3262 34.2136 -15.2317 -60.9601 2.30455 -8.63037 26.7943 -15.4825 3.57978 0.0784225 -0.0 -0.0 0.0 0.0 0.0 
2149.39 657.178 -1616.53 13.0496 60.8558 -8.88607 -1.64016 -0.0763366 -1.39689 -1.63907 0.0126968 -1.39891 -1.63847 0.345401 -1.35567 -1.64101 0.126986 -1.3932 -15.0191 16.8857 13.9743 -14.9488 24.1066 18.7028 -0.0 0.0 -0.0 6.17541 25.4523 11.1199 11.6775 -26.923 62.6501 2.1415 -46.685 0.924249 -36.6469 -2.60182 3.80958 0.969136 -0.250897 6.38419 -0.0 0.0 -0.0 12.7781 10.5322 -26.0492 -7.91585 -7.13786 -57.1538 0.22129 6.25597 -0.0120931 -42.577 3.2293 -4.23954 4.56529 -27.0426 -39.4774 0.0 0.0 0.0 17.5861 35.6607 -18.5581 -39.7381 -0.450191 5.9616 34.9647 -11.6412 -4.59963 1.78619 -0.0 -0.0 -0.0 0.0 -0.0 21.7338 34.7978 -17.3656 -60.4077 2.24417 -8.57022 25.7766 -20.3278 3.5206 -0.10796 0.0 0.0 0.0 0.0 0.0 
2133.23 662.31 -1613.43 16.1428 59.96 -11.6363 -2.07214 -0.0355223 -1.3758 -2.07109 0.0520867 -1.37527 -2.0714 0.388026 -1.32043 -2.07379 0.17464 -1.36513 -16.0019 17.1093 13.4377 -16.0919 25.1553 18.5511 -0.0 0.0 -0.0 6.47046 26.0392 11.4693 13.5957 -27.6601 63.3573 2.25164 -48.1159 1.00533 -36.995 -2.6374 3.83659 0.837559 1.11031 6.05525 -0.0 0.0 -0.0 12.6748 9.33427 -25.802 -8.6158 -8.36936 -56.3675 0.347111 9.75672 -0.029626 -41.6191 3.12497 -4.1745 5.39069 -30.217 -46.1868 0.0 0.0 0.0 7.92559 35.7176 -12.8296 -29.8964 0.0480218 4.53603 37.302 -7.78718 -4.73856 -2.56718 0.0 0.0 -0.0 0.0 -0.0 24.2725 35.0616 -18.714 -57.4397 1.92996 -8.23737 22.3097 -21.5561 3.11362 0.0614085 -0.0 -0.0 0.0 0.0 0.0 
2107.52 667.197 -1608.16 18.2362 59.1554 -14.6559 -2.46591 -0.0842161 -1.14917 -2.46517 -0.0109255 -1.1522 -2.46417 0.279836 -1.11776 -2.4659 0.0998062 -1.14792 -15.697 17.1388 13.7252 -15.7314 24.954 18.7399 -0.0 0.0 -0.0 6.39434 25.4887 11.4146 14.6462 -27.9618 64.054 2.3351 -49.1495 1.06796 -37.2525 -2.66382 3.85643 0.606905 0.820767 4.39391 -0.0 0.0 -0.0 12.568 8.14161 -25.5377 -9.43293 -7.59227 -54.8274 0.303651 8.55448 -0.0227104 -43.8281 3.36717 -4.32184 5.53203 -32.2411 -47.2571 0.0 0.0 0.0 1.72445 37.8284 -8.51303 -27.747 0.123746 4.21488 39.5455 -5.23472 -4.89584 -1.25633 0.0 0.0 -0.0 0.0 -0.0 26.2711 33.9393 -19.9246 -55.1282 1.69751 -7.96727 24.9073 -26.7975 3.53495 -0.327145 0.0 0.0 0.0 0.0 0.0 
2085.17 666.597 -1605.28 18.0915 58.0932 -14.5883 -2.58233 -0.025431 -1.24427 -2.58147 0.0537902 -1.24336 -2.58177 0.3679 -1.18891 -2.5837 0.175531 -1.23209 -15.4328 17.5893 13.2183 -15.5458 26.0407 18.3854 -0.0 0.0 -0.0 6.68601 25.1702 11.8422 16.43 -28.1153 64.5781 2.50266 -51.1016 1.19658 -37.4246 -2.68153 3.86963 0.347701 1.68061 3.01889 -0.0 0.0 -0.0 12.1048 6.335 -24.4463 -9.83492 -7.55846 -54.2561 0.351917 9.88915 -0.0304458 -44.3067 3.42038 -4.35253 5.92251 -32.6593 -50.678 0.0 0.0 0.0 -5.30171 38.7769 -3.83669 -18.8347 0.307685 2.86096 39.5133 -3.27766 -4.86602 -3.27997 0.0 0.0 -0.0 0.0 -0.0 26.6537 32.5715 -19.7073 -51.4111 1.34728 -7.51421 24.5087 -27.7574 3.50659 -0.494129 0.0 0.0 0.0 0.0 0.0 
2066.3 665.94 -1604.13 18.7733 58.0588 -15.1133 -2.70377 0.0506772 -1.37057 -2.70273 0.137779 -1.36457 -2.70504 0.482719 -1.28376 -2.70724 0.273934 -1.34387 -14.8277 18.5913 12.6833 -15.0436 28.1118 18.1119 -0.0 0.0 -0.0 6.84639 24.3631 12.1411 17.7326 -28.2525 65.1053 2.63739 -52.5601 1.30251 -36.0684 -2.54308 3.76423 0.30517 2.26807 2.97852 -0.0 0.0 -0.0 11.8332 5.28057 -23.8068 -10.1168 -7.72438 -53.7931 0.318808 8.97469 -0.0250199 -44.4677 3.43834 -4.36275 6.40746 -33.0369 -55.4227 0.0 0.0 0.0 -10.5219 38.038 -0.348522 -12.7868 0.311835 1.93348 36.8788 -3.03258 -4.62626 -7.05693 0.0 0.0 -0.0 0.0 -0.0 27.6992 32.2038 -20.5786 -46.9867 0.969974 -6.94717 24.0612 -27.4899 3.44337 -2.17905 0.0 0.0 0.0 0.0 0.0 
